<svg width="93" height="90" viewBox="0 0 93 90" fill="none" xmlns="http://www.w3.org/2000/svg">
<path d="M50.9235 41.1429C50.9235 43.7143 48.9133 45.7267 46.3448 45.7267C43.7763 45.7267 41.7662 43.6025 41.7662 41.1429C41.7662 38.5714 43.888 36.559 46.3448 36.559C48.9133 36.4472 50.9235 38.5714 50.9235 41.1429Z" fill="white"/>
<path d="M84.6492 41.1429C84.6492 43.7143 82.5274 45.7267 80.0705 45.7267C77.502 45.7267 75.4919 43.6025 75.4919 41.1429C75.4919 38.5714 77.502 36.559 80.0705 36.559C82.5274 36.4472 84.6492 38.5714 84.6492 41.1429Z" fill="white"/>
<path d="M49.025 0C33.8373 0 19.6547 7.93789 11.7258 20.795H7.25883C3.23856 20.795 0 24.0373 0 28.0621C0 32.087 3.23856 35.3292 7.25883 35.3292V31.3043C5.47204 31.3043 4.02028 29.8509 4.02028 28.0621C4.02028 26.2733 5.47204 24.8199 7.25883 24.8199H13.9593L14.5177 23.8137C21.5532 11.5155 34.7307 3.91304 48.8017 3.91304C70.6899 3.91304 88.4461 21.6894 88.4461 43.6025V61.8261C88.4461 67.8633 83.5324 72.8944 77.3903 72.8944C72.03 72.8944 67.6747 69.0932 66.5579 64.0621C71.2482 62.4969 74.7101 56.4596 74.7101 54C74.7101 51.0932 70.0198 48.7453 64.3244 48.7453C58.629 48.7453 53.9387 51.0932 53.9387 54C53.9387 56.4596 57.4006 62.4969 62.0909 64.0621C61.0859 69.0932 56.6189 72.8944 51.2585 72.8944C45.2281 72.8944 40.2028 67.9752 40.2028 61.8261C40.2028 52.0994 32.2739 44.1615 22.5582 44.1615C15.7461 44.2733 9.60399 48.6335 6.81214 54.7826C5.80707 51.205 5.36037 47.5155 5.36037 43.7143H1.34009C1.34009 69.205 22.1115 90 47.5733 90V85.9752C30.7104 85.9752 16.0811 76.0248 9.26897 61.6025C9.49232 54.2236 15.5227 48.2981 22.8932 48.2981C30.3754 48.2981 36.5175 54.4472 36.5175 61.9379C36.5175 70.2112 43.218 77.0311 51.5935 77.0311C57.1773 77.0311 61.9793 74.0124 64.6594 69.4286C67.228 73.9006 72.1416 77.0311 77.7253 77.0311C85.9893 77.0311 92.8014 70.323 92.8014 61.9379V43.7143C92.578 19.5652 73.035 0 49.025 0ZM58.294 54.4472C59.0757 53.8882 61.1975 52.882 64.5478 52.882C67.898 52.882 70.1315 53.8882 70.8015 54.4472C70.2432 56.3478 67.3396 60.4845 64.5478 60.4845C61.7559 60.4845 58.8524 56.3478 58.294 54.4472Z" fill="white"/>
</svg>
